<svg width="40" height="40" viewBox="0 0 40 40" fill="none" xmlns="http://www.w3.org/2000/svg">
<path opacity="0.2" d="M35 19.8703C35.0099 21.0361 34.8846 22.1991 34.6266 23.336C34.4372 24.164 33.9724 24.9032 33.3082 25.4326C32.644 25.962 31.8197 26.2502 30.9703 26.25H23.75C22.7554 26.25 21.8016 26.6451 21.0983 27.3484C20.3951 28.0516 20 29.0055 20 30C19.9996 30.5997 19.8553 31.1906 19.5793 31.723C19.3034 32.2554 18.9037 32.7139 18.414 33.06C17.9242 33.406 17.3585 33.6296 16.7645 33.7118C16.1705 33.7941 15.5654 33.7327 15 33.5328C9.17656 31.475 5 26.5328 5 20C4.99979 16.0487 6.55867 12.2569 9.33801 9.44829C12.1174 6.63969 15.8926 5.04119 19.8438 5.00003C28.1 4.91721 34.9297 11.6172 35 19.8703Z" fill="#E3405B"/>
<path d="M31.3703 8.42032C28.3448 5.42436 24.2578 3.74564 20 3.75001H19.8328C15.5521 3.79405 11.4617 5.52553 8.45025 8.56823C5.43885 11.6109 3.74977 15.7191 3.75 20C3.75 26.7188 7.90312 32.3531 14.5875 34.7141C15.3414 34.9799 16.1481 35.061 16.9398 34.9507C17.7316 34.8404 18.4854 34.5419 19.138 34.0802C19.7905 33.6185 20.3229 33.007 20.6904 32.297C21.0579 31.5871 21.2498 30.7994 21.25 30C21.25 29.337 21.5134 28.7011 21.9822 28.2322C22.4511 27.7634 23.087 27.5 23.75 27.5H30.9703C32.1045 27.5055 33.2064 27.1229 34.0932 26.4158C34.98 25.7086 35.5982 24.7195 35.8453 23.6125C36.1247 22.3824 36.2605 21.1239 36.25 19.8625C36.2341 17.7273 35.7946 15.6165 34.9569 13.6523C34.1193 11.6882 32.9002 9.90987 31.3703 8.42032ZM33.4016 23.0625C33.2774 23.614 32.9688 24.1066 32.5267 24.4589C32.0846 24.8112 31.5356 25.0021 30.9703 25H23.75C22.4239 25 21.1521 25.5268 20.2145 26.4645C19.2768 27.4022 18.75 28.6739 18.75 30C18.7494 30.3993 18.6532 30.7927 18.4694 31.1472C18.2856 31.5017 18.0195 31.807 17.6935 32.0376C17.3674 32.2681 16.9909 32.4172 16.5954 32.4724C16.2 32.5276 15.797 32.4872 15.4203 32.3547C9.76406 30.3594 6.25 25.625 6.25 20C6.24981 16.3778 7.67893 12.9018 10.2269 10.3272C12.7748 7.75264 16.2358 6.28747 19.8578 6.25001H19.9984C23.6206 6.26408 27.0921 7.70122 29.6643 10.2515C32.2366 12.8018 33.7034 16.2609 33.7484 19.8828C33.7577 20.9523 33.6434 22.0193 33.4078 23.0625H33.4016ZM21.875 11.875C21.875 12.2458 21.765 12.6084 21.559 12.9167C21.353 13.225 21.0601 13.4654 20.7175 13.6073C20.3749 13.7492 19.9979 13.7863 19.6342 13.714C19.2705 13.6416 18.9364 13.4631 18.6742 13.2008C18.412 12.9386 18.2334 12.6045 18.161 12.2408C18.0887 11.8771 18.1258 11.5001 18.2677 11.1575C18.4096 10.8149 18.65 10.522 18.9583 10.316C19.2666 10.11 19.6292 10 20 10C20.4973 10 20.9742 10.1976 21.3258 10.5492C21.6775 10.9008 21.875 11.3777 21.875 11.875ZM15 15.625C15 15.9958 14.89 16.3584 14.684 16.6667C14.478 16.975 14.1851 17.2154 13.8425 17.3573C13.4999 17.4992 13.1229 17.5363 12.7592 17.464C12.3955 17.3916 12.0614 17.2131 11.7992 16.9508C11.537 16.6886 11.3584 16.3545 11.286 15.9908C11.2137 15.6271 11.2508 15.2501 11.3927 14.9075C11.5346 14.5649 11.775 14.272 12.0833 14.066C12.3916 13.86 12.7542 13.75 13.125 13.75C13.6223 13.75 14.0992 13.9476 14.4508 14.2992C14.8025 14.6508 15 15.1277 15 15.625ZM15 24.375C15 24.7458 14.89 25.1084 14.684 25.4167C14.478 25.725 14.1851 25.9654 13.8425 26.1073C13.4999 26.2492 13.1229 26.2863 12.7592 26.214C12.3955 26.1416 12.0614 25.9631 11.7992 25.7008C11.537 25.4386 11.3584 25.1045 11.286 24.7408C11.2137 24.3771 11.2508 24.0001 11.3927 23.6575C11.5346 23.3149 11.775 23.022 12.0833 22.816C12.3916 22.61 12.7542 22.5 13.125 22.5C13.6223 22.5 14.0992 22.6976 14.4508 23.0492C14.8025 23.4008 15 23.8777 15 24.375ZM28.75 15.625C28.75 15.9958 28.64 16.3584 28.434 16.6667C28.228 16.975 27.9351 17.2154 27.5925 17.3573C27.2499 17.4992 26.8729 17.5363 26.5092 17.464C26.1455 17.3916 25.8114 17.2131 25.5492 16.9508C25.287 16.6886 25.1084 16.3545 25.036 15.9908C24.9637 15.6271 25.0008 15.2501 25.1427 14.9075C25.2846 14.5649 25.525 14.272 25.8333 14.066C26.1416 13.86 26.5042 13.75 26.875 13.75C27.3723 13.75 27.8492 13.9476 28.2008 14.2992C28.5525 14.6508 28.75 15.1277 28.75 15.625Z" fill="#FF6776"/>
</svg>
