<svg width="40" height="40" viewBox="0 0 40 40" fill="none" xmlns="http://www.w3.org/2000/svg">
<path opacity="0.2" d="M32.4781 19.2469L35.1 15.9656C34.7463 14.6363 34.2172 13.36 33.5265 12.1703L29.3546 11.7016C29.0214 11.3261 28.6661 10.9708 28.2906 10.6375L27.8218 6.46409C26.6309 5.77757 25.3541 5.25215 24.025 4.90159L20.7437 7.5219C20.2421 7.49221 19.7391 7.49221 19.2375 7.5219L15.9562 4.90002C14.6312 5.25471 13.3591 5.78381 12.1734 6.47346L11.7046 10.6453C11.3292 10.9786 10.9738 11.3339 10.6406 11.7094L6.46714 12.1781C5.78062 13.3691 5.2552 14.6458 4.90464 15.975L7.52495 19.2563C7.49526 19.7579 7.49526 20.2609 7.52495 20.7625L4.90308 24.0438C5.25671 25.3731 5.78585 26.6495 6.47651 27.8391L10.6484 28.3078C10.9817 28.6833 11.337 29.0386 11.7125 29.3719L12.1812 33.5453C13.3721 34.2319 14.6489 34.7573 15.9781 35.1078L19.2593 32.4875C19.761 32.5172 20.2639 32.5172 20.7656 32.4875L24.0468 35.1094C25.3762 34.7558 26.6525 34.2266 27.8421 33.536L28.3109 29.3641C28.6864 29.0308 29.0417 28.6755 29.375 28.3L33.5484 27.8313C34.2349 26.6403 34.7603 25.3636 35.1109 24.0344L32.4906 20.7532C32.5161 20.2513 32.5119 19.7483 32.4781 19.2469ZM20 26.25C18.7638 26.25 17.5554 25.8835 16.5276 25.1967C15.4998 24.51 14.6988 23.5338 14.2257 22.3918C13.7527 21.2498 13.6289 19.9931 13.87 18.7807C14.1112 17.5683 14.7065 16.4547 15.5805 15.5806C16.4546 14.7065 17.5683 14.1113 18.7806 13.8701C19.993 13.629 21.2497 13.7527 22.3917 14.2258C23.5338 14.6988 24.5099 15.4999 25.1966 16.5277C25.8834 17.5555 26.25 18.7639 26.25 20C26.25 21.6576 25.5915 23.2473 24.4194 24.4194C23.2473 25.5915 21.6576 26.25 20 26.25Z" fill="#93A5F9"/>
<path d="M20 12.5C18.5166 12.5 17.0665 12.9398 15.8332 13.7639C14.5998 14.588 13.6385 15.7594 13.0709 17.1298C12.5032 18.5003 12.3547 20.0083 12.6441 21.4631C12.9335 22.918 13.6478 24.2544 14.6966 25.3033C15.7455 26.3521 17.0819 27.0665 18.5368 27.3558C19.9916 27.6452 21.4996 27.4967 22.8701 26.929C24.2405 26.3614 25.4119 25.4001 26.236 24.1667C27.0601 22.9334 27.5 21.4833 27.5 20C27.4979 18.0115 26.707 16.105 25.301 14.6989C23.8949 13.2929 21.9884 12.502 20 12.5ZM20 25C19.011 25 18.0443 24.7067 17.2221 24.1573C16.3999 23.6079 15.759 22.827 15.3806 21.9134C15.0021 20.9997 14.9031 19.9944 15.096 19.0245C15.2889 18.0546 15.7652 17.1637 16.4644 16.4644C17.1637 15.7652 18.0546 15.2889 19.0245 15.096C19.9944 14.9031 20.9997 15.0021 21.9134 15.3806C22.827 15.759 23.6079 16.3999 24.1573 17.2221C24.7067 18.0443 25 19.011 25 20C25 21.326 24.4732 22.5978 23.5355 23.5355C22.5978 24.4732 21.326 25 20 25ZM33.75 20.3375C33.7562 20.1125 33.7562 19.8875 33.75 19.6625L36.0812 16.75C36.2034 16.597 36.288 16.4175 36.3282 16.2259C36.3684 16.0343 36.363 15.836 36.3125 15.6468C35.9296 14.2105 35.3579 12.8313 34.6125 11.5453C34.5148 11.377 34.3791 11.2339 34.2164 11.1273C34.0536 11.0207 33.8682 10.9535 33.675 10.9312L29.9687 10.5187C29.8145 10.3562 29.6583 10.2 29.5 10.05L29.0625 6.33432C29.0399 6.14091 28.9726 5.95542 28.8657 5.79265C28.7588 5.62989 28.6154 5.49434 28.4468 5.39682C27.1609 4.6519 25.7816 4.08127 24.3453 3.69995C24.1561 3.64942 23.9578 3.64402 23.7662 3.68419C23.5746 3.72435 23.3951 3.80896 23.2421 3.9312L20.3375 6.24995C20.1125 6.24995 19.8875 6.24995 19.6625 6.24995L16.75 3.92339C16.597 3.80115 16.4175 3.71654 16.2259 3.67637C16.0343 3.63621 15.836 3.64161 15.6468 3.69214C14.2105 4.07499 12.8313 4.64664 11.5453 5.39214C11.377 5.48983 11.2339 5.62546 11.1273 5.78821C11.0207 5.95097 10.9535 6.13636 10.9312 6.32964L10.5187 10.0421C10.3562 10.1973 10.2 10.3536 10.05 10.5109L6.33432 10.9375C6.14091 10.96 5.95542 11.0273 5.79265 11.1342C5.62989 11.2411 5.49434 11.3845 5.39682 11.5531C4.65205 12.8393 4.08094 14.2185 3.69839 15.6546C3.64807 15.8439 3.64292 16.0423 3.68336 16.2339C3.7238 16.4255 3.80869 16.605 3.9312 16.7578L6.24995 19.6625C6.24995 19.8875 6.24995 20.1125 6.24995 20.3375L3.92339 23.25C3.80115 23.4029 3.71654 23.5824 3.67637 23.774C3.63621 23.9656 3.64161 24.1639 3.69214 24.3531C4.07499 25.7894 4.64664 27.1686 5.39214 28.4546C5.48983 28.6229 5.62546 28.766 5.78821 28.8726C5.95097 28.9792 6.13636 29.0464 6.32964 29.0687L10.0359 29.4812C10.1911 29.6437 10.3473 29.8 10.5046 29.95L10.9375 33.6656C10.96 33.859 11.0273 34.0445 11.1342 34.2072C11.2411 34.37 11.3845 34.5056 11.5531 34.6031C12.8393 35.3478 14.2185 35.919 15.6546 36.3015C15.8439 36.3518 16.0423 36.357 16.2339 36.3165C16.4255 36.2761 16.605 36.1912 16.7578 36.0687L19.6625 33.75C19.8875 33.7562 20.1125 33.7562 20.3375 33.75L23.25 36.0812C23.4029 36.2034 23.5824 36.288 23.774 36.3282C23.9656 36.3684 24.1639 36.363 24.3531 36.3125C25.7896 35.9303 27.1689 35.3586 28.4546 34.6125C28.6229 34.5148 28.766 34.3791 28.8726 34.2164C28.9792 34.0536 29.0464 33.8682 29.0687 33.675L29.4812 29.9687C29.6437 29.8145 29.8 29.6583 29.95 29.5L33.6656 29.0625C33.859 29.0399 34.0445 28.9726 34.2072 28.8657C34.37 28.7588 34.5056 28.6154 34.6031 28.4468C35.3478 27.1606 35.919 25.7814 36.3015 24.3453C36.3518 24.156 36.357 23.9576 36.3165 23.766C36.2761 23.5744 36.1912 23.3949 36.0687 23.2421L33.75 20.3375ZM31.2343 19.3218C31.2609 19.7735 31.2609 20.2264 31.2343 20.6781C31.2157 20.9873 31.3126 21.2925 31.5062 21.5343L33.7234 24.3046C33.469 25.1132 33.1432 25.8975 32.75 26.6484L29.2187 27.0484C28.9112 27.0825 28.6272 27.2295 28.4218 27.4609C28.1211 27.7992 27.8007 28.1195 27.4625 28.4203C27.2311 28.6257 27.0841 28.9096 27.05 29.2171L26.6578 32.7453C25.907 33.1387 25.1226 33.4645 24.314 33.7187L21.5421 31.5015C21.3203 31.3243 21.0448 31.2279 20.7609 31.2281H20.6859C20.2342 31.2546 19.7813 31.2546 19.3296 31.2281C19.0205 31.2104 18.7157 31.3071 18.4734 31.5L15.6953 33.7187C14.8867 33.4643 14.1024 33.1385 13.3515 32.7453L12.9515 29.2187C12.9174 28.9112 12.7704 28.6272 12.539 28.4218C12.2007 28.1211 11.8804 27.8007 11.5796 27.4625C11.3742 27.2311 11.0903 27.0841 10.7828 27.05L7.25464 26.6562C6.86119 25.9054 6.53542 25.1211 6.2812 24.3125L8.49839 21.5406C8.69199 21.2987 8.78888 20.9936 8.77026 20.6843C8.7437 20.2326 8.7437 19.7798 8.77026 19.3281C8.78888 19.0188 8.69199 18.7137 8.49839 18.4718L6.2812 15.6953C6.53561 14.8867 6.86137 14.1024 7.25464 13.3515L10.7812 12.9515C11.0887 12.9174 11.3727 12.7704 11.5781 12.539C11.8788 12.2007 12.1992 11.8804 12.5374 11.5796C12.7698 11.3741 12.9173 11.0895 12.9515 10.7812L13.3437 7.25464C14.0945 6.86119 14.8788 6.53542 15.6875 6.2812L18.4593 8.49839C18.7012 8.69199 19.0063 8.78888 19.3156 8.77026C19.7673 8.7437 20.2201 8.7437 20.6718 8.77026C20.981 8.78798 21.2858 8.69119 21.5281 8.49839L24.3046 6.2812C25.1132 6.53561 25.8975 6.86137 26.6484 7.25464L27.0484 10.7812C27.0825 11.0887 27.2295 11.3727 27.4609 11.5781C27.7992 11.8788 28.1195 12.1992 28.4203 12.5374C28.6257 12.7688 28.9096 12.9158 29.2171 12.9499L32.7453 13.3421C33.1387 14.0929 33.4645 14.8773 33.7187 15.6859L31.5015 18.4578C31.306 18.7017 31.209 19.0099 31.2296 19.3218H31.2343Z" fill="#423EAC"/>
</svg>
