<svg width="40" height="40" viewBox="0 0 40 40" fill="none" xmlns="http://www.w3.org/2000/svg">
<rect width="40" height="40" rx="20" fill="#3F44A6"/>
<path d="M9.73145 8.87305C9.70215 8.28711 9.89746 7.99414 10.3174 7.99414H11.8848C12.1875 7.99414 12.3438 8.21875 12.3535 8.66797L12.6904 22.7451C12.7002 23.3408 12.6953 23.917 12.6758 24.4736C12.6562 25.0205 12.6465 25.6846 12.6465 26.4658H12.7197C12.9541 25.8896 13.1982 25.3184 13.4521 24.752C13.7158 24.1855 14.0186 23.5215 14.3604 22.7598L20.791 8.78516C21.0352 8.25781 21.4062 7.99414 21.9043 7.99414H23.8818C24.3799 7.99414 24.6338 8.25781 24.6436 8.78516L24.9072 22.7598C24.917 23.2383 24.917 23.8047 24.9072 24.459C24.8975 25.1035 24.8926 25.7725 24.8926 26.4658H24.9658C25.2295 25.8799 25.5371 25.2305 25.8887 24.5176C26.2402 23.7949 26.5186 23.2041 26.7236 22.7451L33.0811 8.66797C33.2861 8.21875 33.5498 7.99414 33.8721 7.99414H35.8057C36.2061 7.99414 36.2646 8.28711 35.9814 8.87305L26.709 27.8721C26.3379 28.624 25.8887 29 25.3613 29H23.5303C23.042 29 22.7881 28.5898 22.7686 27.7695L22.3877 13.7217C22.3682 12.9795 22.3682 12.4082 22.3877 12.0078C22.417 11.5977 22.4316 11.1143 22.4316 10.5576H22.4023C22.1973 11.1533 22.0166 11.6611 21.8604 12.0811C21.7041 12.4912 21.4648 13.0381 21.1426 13.7217L14.5068 27.7695C14.1162 28.5898 13.6768 29 13.1885 29H11.3574C10.8398 29 10.5664 28.624 10.5371 27.8721L9.73145 8.87305Z" fill="white"/>
</svg>
