<svg width="48" height="48" viewBox="0 0 48 48" fill="none" xmlns="http://www.w3.org/2000/svg">
<path opacity="0.2" d="M42 24C42 27.5601 40.9443 31.0402 38.9665 34.0003C36.9886 36.9604 34.1774 39.2675 30.8883 40.6298C27.5992 41.9922 23.98 42.3487 20.4884 41.6541C16.9967 40.9596 13.7894 39.2453 11.2721 36.7279C8.75474 34.2106 7.04041 31.0033 6.34587 27.5116C5.65134 24.02 6.0078 20.4008 7.37018 17.1117C8.73255 13.8226 11.0397 11.0114 13.9997 9.03355C16.9598 7.05568 20.4399 6 24 6C28.7739 6 33.3523 7.89642 36.7279 11.2721C40.1036 14.6477 42 19.2261 42 24Z" fill="#93A5F9"/>
<path d="M24 4.5C20.1433 4.5 16.3731 5.64366 13.1664 7.78634C9.95963 9.92903 7.46027 12.9745 5.98436 16.5377C4.50845 20.1008 4.12228 24.0216 4.8747 27.8043C5.62711 31.5869 7.4843 35.0615 10.2114 37.7886C12.9386 40.5157 16.4131 42.3729 20.1957 43.1253C23.9784 43.8777 27.8992 43.4916 31.4623 42.0156C35.0255 40.5397 38.071 38.0404 40.2137 34.8336C42.3564 31.6269 43.5 27.8567 43.5 24C43.4945 18.83 41.4383 13.8732 37.7826 10.2174C34.1268 6.56167 29.1701 4.50546 24 4.5ZM24 40.5C20.7366 40.5 17.5465 39.5323 14.8331 37.7192C12.1197 35.9062 10.0048 33.3293 8.756 30.3143C7.50715 27.2993 7.1804 23.9817 7.81705 20.781C8.45371 17.5803 10.0252 14.6403 12.3327 12.3327C14.6403 10.0252 17.5803 8.4537 20.781 7.81704C23.9817 7.18039 27.2993 7.50714 30.3143 8.75599C33.3293 10.0048 35.9062 12.1197 37.7193 14.8331C39.5323 17.5465 40.5 20.7366 40.5 24C40.495 28.3745 38.7551 32.5685 35.6618 35.6618C32.5685 38.7551 28.3746 40.495 24 40.5ZM28.0613 17.5613L21.6206 24L28.0613 30.4387C28.2006 30.5781 28.3112 30.7436 28.3866 30.9257C28.462 31.1077 28.5008 31.3029 28.5008 31.5C28.5008 31.6971 28.462 31.8923 28.3866 32.0743C28.3112 32.2564 28.2006 32.4219 28.0613 32.5613C27.9219 32.7006 27.7564 32.8112 27.5744 32.8866C27.3923 32.962 27.1971 33.0008 27 33.0008C26.8029 33.0008 26.6078 32.962 26.4257 32.8866C26.2436 32.8112 26.0781 32.7006 25.9388 32.5613L18.4388 25.0613C18.2993 24.9219 18.1887 24.7565 18.1132 24.5744C18.0377 24.3923 17.9988 24.1971 17.9988 24C17.9988 23.8029 18.0377 23.6077 18.1132 23.4256C18.1887 23.2435 18.2993 23.0781 18.4388 22.9387L25.9388 15.4387C26.0781 15.2994 26.2436 15.1888 26.4257 15.1134C26.6078 15.038 26.8029 14.9992 27 14.9992C27.1971 14.9992 27.3923 15.038 27.5744 15.1134C27.7564 15.1888 27.9219 15.2994 28.0613 15.4387C28.2006 15.5781 28.3112 15.7436 28.3866 15.9257C28.462 16.1077 28.5008 16.3029 28.5008 16.5C28.5008 16.6971 28.462 16.8923 28.3866 17.0743C28.3112 17.2564 28.2006 17.4219 28.0613 17.5613Z" fill="#423EAC"/>
</svg>
