<svg width="24" height="24" viewBox="0 0 24 24" fill="none" xmlns="http://www.w3.org/2000/svg">
<path opacity="0.2" d="M16.5 12C16.5 12.89 16.2361 13.76 15.7416 14.5001C15.2471 15.2401 14.5443 15.8169 13.7221 16.1575C12.8998 16.4981 11.995 16.5872 11.1221 16.4135C10.2492 16.2399 9.44736 15.8113 8.81802 15.182C8.18869 14.5526 7.7601 13.7508 7.58647 12.8779C7.41283 12.005 7.50195 11.1002 7.84254 10.2779C8.18314 9.45566 8.75991 8.75285 9.49994 8.25839C10.24 7.76392 11.11 7.5 12 7.5C13.1935 7.5 14.3381 7.97411 15.182 8.81802C16.0259 9.66193 16.5 10.8065 16.5 12Z" fill="#FF6776"/>
<path d="M20.8004 7.79626C21.8412 9.97295 22.0387 12.458 21.355 14.7718C20.6713 17.0856 19.1547 19.0641 17.098 20.3255C15.0413 21.5868 12.5902 22.0417 10.2179 21.6022C7.84557 21.1627 5.72013 19.86 4.25179 17.9455C2.78344 16.0311 2.0763 13.6406 2.26682 11.2354C2.45735 8.83024 3.53204 6.5809 5.28348 4.92151C7.03492 3.26211 9.33895 2.3103 11.7509 2.24978C14.1628 2.18925 16.5117 3.0243 18.3442 4.59376L20.4695 2.46751C20.6102 2.32678 20.8011 2.24771 21.0001 2.24771C21.1991 2.24771 21.39 2.32678 21.5307 2.46751C21.6715 2.60824 21.7505 2.79911 21.7505 2.99813C21.7505 3.19715 21.6715 3.38803 21.5307 3.52876L12.5307 12.5288C12.39 12.6695 12.1991 12.7485 12.0001 12.7485C11.8011 12.7485 11.6102 12.6695 11.4695 12.5288C11.3288 12.388 11.2497 12.1972 11.2497 11.9981C11.2497 11.7991 11.3288 11.6082 11.4695 11.4675L14.0682 8.86876C13.3639 8.40296 12.5231 8.1885 11.6817 8.26008C10.8404 8.33166 10.0478 8.6851 9.43231 9.26318C8.81683 9.84126 8.41446 10.6101 8.29034 11.4454C8.16622 12.2806 8.32762 13.1332 8.7484 13.8653C9.16919 14.5974 9.82473 15.166 10.6089 15.4792C11.3931 15.7923 12.26 15.8316 13.0693 15.5908C13.8786 15.3499 14.5829 14.843 15.0683 14.152C15.5536 13.461 15.7915 12.6265 15.7435 11.7834C15.738 11.685 15.7519 11.5863 15.7845 11.4932C15.8171 11.4001 15.8677 11.3143 15.9334 11.2408C15.9991 11.1672 16.0787 11.1073 16.1676 11.0645C16.2564 11.0217 16.3529 10.9968 16.4514 10.9913C16.6503 10.9801 16.8455 11.0484 16.994 11.1811C17.0676 11.2468 17.1275 11.3264 17.1703 11.4153C17.2131 11.5041 17.238 11.6006 17.2435 11.6991C17.3119 12.8923 16.9711 14.0731 16.2774 15.0464C15.5838 16.0197 14.5788 16.7272 13.4285 17.0519C12.2783 17.3767 11.0517 17.2992 9.95148 16.8324C8.85123 16.3655 7.94322 15.5372 7.3775 14.4844C6.81178 13.4316 6.62223 12.2172 6.84017 11.0421C7.05811 9.86694 7.67049 8.80133 8.57611 8.02138C9.48173 7.24142 10.6264 6.79382 11.8208 6.75255C13.0153 6.71127 14.1881 7.0788 15.1454 7.79438L17.2782 5.66157C15.7152 4.36388 13.7279 3.68941 11.6979 3.7677C9.66793 3.846 7.73844 4.67153 6.28003 6.08576C4.82163 7.49998 3.93715 9.40317 3.79646 11.4298C3.65578 13.4564 4.26881 15.4635 5.51782 17.0657C6.76683 18.6679 8.56375 19.7521 10.5634 20.1101C12.5631 20.4682 14.6246 20.0747 16.3519 19.0055C18.0792 17.9362 19.3506 16.2664 19.9218 14.3169C20.493 12.3674 20.3238 10.2755 19.4467 8.44313C19.3609 8.26361 19.3499 8.05737 19.4162 7.86978C19.4825 7.68218 19.6206 7.5286 19.8001 7.44282C19.9796 7.35704 20.1859 7.34608 20.3735 7.41237C20.5611 7.47865 20.7146 7.61674 20.8004 7.79626Z" fill="#E3405B"/>
</svg>
