<svg width="48" height="48" viewBox="0 0 48 48" fill="none" xmlns="http://www.w3.org/2000/svg">
<path opacity="0.2" d="M5.99999 24C5.99999 27.5601 7.05568 31.0402 9.03354 34.0003C11.0114 36.9604 13.8226 39.2675 17.1117 40.6298C20.4008 41.9922 24.02 42.3487 27.5116 41.6541C31.0033 40.9596 34.2106 39.2453 36.7279 36.7279C39.2453 34.2106 40.9596 31.0033 41.6541 27.5116C42.3487 24.02 41.9922 20.4008 40.6298 17.1117C39.2674 13.8226 36.9603 11.0114 34.0003 9.03355C31.0402 7.05568 27.5601 6 24 6C19.2261 6 14.6477 7.89642 11.2721 11.2721C7.89642 14.6477 5.99999 19.2261 5.99999 24Z" fill="#93A5F9"/>
<path d="M24 4.5C27.8567 4.5 31.6269 5.64366 34.8336 7.78634C38.0404 9.92903 40.5397 12.9745 42.0156 16.5377C43.4916 20.1008 43.8777 24.0216 43.1253 27.8043C42.3729 31.5869 40.5157 35.0615 37.7886 37.7886C35.0614 40.5157 31.5869 42.3729 27.8043 43.1253C24.0216 43.8777 20.1008 43.4916 16.5377 42.0156C12.9745 40.5397 9.92902 38.0404 7.78633 34.8336C5.64365 31.6269 4.49999 27.8567 4.49999 24C4.50545 18.83 6.56166 13.8732 10.2174 10.2174C13.8732 6.56167 18.8299 4.50546 24 4.5ZM24 40.5C27.2634 40.5 30.4535 39.5323 33.1669 37.7192C35.8803 35.9062 37.9952 33.3293 39.244 30.3143C40.4928 27.2993 40.8196 23.9817 40.1829 20.781C39.5463 17.5803 37.9748 14.6403 35.6673 12.3327C33.3597 10.0252 30.4197 8.4537 27.219 7.81704C24.0183 7.18039 20.7007 7.50714 17.6857 8.75599C14.6707 10.0048 12.0938 12.1197 10.2807 14.8331C8.4677 17.5465 7.49999 20.7366 7.49999 24C7.50496 28.3745 9.24493 32.5685 12.3382 35.6618C15.4315 38.7551 19.6254 40.495 24 40.5ZM19.9387 17.5613L26.3794 24L19.9387 30.4387C19.7994 30.5781 19.6888 30.7436 19.6134 30.9257C19.538 31.1077 19.4992 31.3029 19.4992 31.5C19.4992 31.6971 19.538 31.8923 19.6134 32.0743C19.6888 32.2564 19.7994 32.4219 19.9387 32.5613C20.0781 32.7006 20.2436 32.8112 20.4256 32.8866C20.6077 32.962 20.8029 33.0008 21 33.0008C21.1971 33.0008 21.3922 32.962 21.5743 32.8866C21.7564 32.8112 21.9219 32.7006 22.0612 32.5613L29.5612 25.0613C29.7007 24.9219 29.8113 24.7565 29.8868 24.5744C29.9623 24.3923 30.0012 24.1971 30.0012 24C30.0012 23.8029 29.9623 23.6077 29.8868 23.4256C29.8113 23.2435 29.7007 23.0781 29.5612 22.9387L22.0612 15.4387C21.9219 15.2994 21.7564 15.1888 21.5743 15.1134C21.3922 15.038 21.1971 14.9992 21 14.9992C20.8029 14.9992 20.6077 15.038 20.4256 15.1134C20.2436 15.1888 20.0781 15.2994 19.9387 15.4387C19.7994 15.5781 19.6888 15.7436 19.6134 15.9257C19.538 16.1077 19.4992 16.3029 19.4992 16.5C19.4992 16.6971 19.538 16.8923 19.6134 17.0743C19.6888 17.2564 19.7994 17.4219 19.9387 17.5613Z" fill="#423EAC"/>
</svg>
