<svg width="40" height="40" viewBox="0 0 40 40" fill="none" xmlns="http://www.w3.org/2000/svg">
<path opacity="0.2" d="M33.75 11.25V27.5H6.25V11.25C6.25 10.587 6.51339 9.95107 6.98223 9.48223C7.45107 9.01339 8.08696 8.75 8.75 8.75H31.25C31.913 8.75 32.5489 9.01339 33.0178 9.48223C33.4866 9.95107 33.75 10.587 33.75 11.25Z" fill="#93A5F9"/>
<path d="M36.25 26.25H35V11.25C35 10.2554 34.6049 9.30161 33.9017 8.59835C33.1984 7.89509 32.2446 7.5 31.25 7.5H8.75C7.75544 7.5 6.80161 7.89509 6.09835 8.59835C5.39509 9.30161 5 10.2554 5 11.25V26.25H3.75C3.41848 26.25 3.10054 26.3817 2.86612 26.6161C2.6317 26.8505 2.5 27.1685 2.5 27.5V30C2.5 30.9946 2.89509 31.9484 3.59835 32.6517C4.30161 33.3549 5.25544 33.75 6.25 33.75H33.75C34.7446 33.75 35.6984 33.3549 36.4016 32.6517C37.1049 31.9484 37.5 30.9946 37.5 30V27.5C37.5 27.1685 37.3683 26.8505 37.1339 26.6161C36.8995 26.3817 36.5815 26.25 36.25 26.25ZM7.5 11.25C7.5 10.9185 7.6317 10.6005 7.86612 10.3661C8.10054 10.1317 8.41848 10 8.75 10H31.25C31.5815 10 31.8995 10.1317 32.1339 10.3661C32.3683 10.6005 32.5 10.9185 32.5 11.25V26.25H7.5V11.25ZM35 30C35 30.3315 34.8683 30.6495 34.6339 30.8839C34.3995 31.1183 34.0815 31.25 33.75 31.25H6.25C5.91848 31.25 5.60054 31.1183 5.36612 30.8839C5.1317 30.6495 5 30.3315 5 30V28.75H35V30ZM23.75 13.75C23.75 14.0815 23.6183 14.3995 23.3839 14.6339C23.1495 14.8683 22.8315 15 22.5 15H17.5C17.1685 15 16.8505 14.8683 16.6161 14.6339C16.3817 14.3995 16.25 14.0815 16.25 13.75C16.25 13.4185 16.3817 13.1005 16.6161 12.8661C16.8505 12.6317 17.1685 12.5 17.5 12.5H22.5C22.8315 12.5 23.1495 12.6317 23.3839 12.8661C23.6183 13.1005 23.75 13.4185 23.75 13.75Z" fill="#423EAC"/>
</svg>
