<svg width="24" height="24" viewBox="0 0 24 24" fill="none" xmlns="http://www.w3.org/2000/svg">
<path opacity="0.2" d="M19.5 9.74999C19.501 10.8864 19.2433 12.0081 18.7464 13.0301C18.2495 14.0521 17.5265 14.9476 16.6322 15.6487C16.3591 15.8604 16.1377 16.1315 15.9848 16.4414C15.832 16.7513 15.7517 17.0919 15.75 17.4375V18C15.75 18.1989 15.671 18.3897 15.5303 18.5303C15.3897 18.671 15.1989 18.75 15 18.75H8.99999C8.80108 18.75 8.61032 18.671 8.46966 18.5303C8.32901 18.3897 8.24999 18.1989 8.24999 18V17.4375C8.24963 17.0938 8.17092 16.7548 8.01984 16.4461C7.86876 16.1375 7.64929 15.8673 7.37812 15.6562C6.48653 14.9597 5.76437 14.0703 5.26588 13.0546C4.76739 12.039 4.50554 10.9235 4.49999 9.79217C4.47749 5.72717 7.75499 2.34374 11.8191 2.24999C12.8191 2.22585 13.8138 2.40202 14.7448 2.76811C15.6757 3.1342 16.524 3.68282 17.2397 4.38167C17.9554 5.08053 18.5241 5.9155 18.9123 6.83744C19.3005 7.75938 19.5003 8.74966 19.5 9.74999Z" fill="#93A5F9"/>
<path d="M16.5 21.75C16.5 21.9489 16.421 22.1397 16.2803 22.2803C16.1397 22.421 15.9489 22.5 15.75 22.5H8.25C8.05109 22.5 7.86032 22.421 7.71967 22.2803C7.57902 22.1397 7.5 21.9489 7.5 21.75C7.5 21.5511 7.57902 21.3603 7.71967 21.2197C7.86032 21.079 8.05109 21 8.25 21H15.75C15.9489 21 16.1397 21.079 16.2803 21.2197C16.421 21.3603 16.5 21.5511 16.5 21.75ZM20.25 9.75002C20.2532 11.0003 19.9708 12.2348 19.4242 13.3593C18.8776 14.4838 18.0814 15.4686 17.0963 16.2385C16.912 16.3797 16.7626 16.5611 16.6592 16.7689C16.5559 16.9767 16.5014 17.2054 16.5 17.4375V18C16.5 18.3978 16.342 18.7794 16.0607 19.0607C15.7794 19.342 15.3978 19.5 15 19.5H9C8.60218 19.5 8.22065 19.342 7.93934 19.0607C7.65804 18.7794 7.5 18.3978 7.5 18V17.4375C7.49985 17.2082 7.44712 16.982 7.34587 16.7762C7.24462 16.5705 7.09754 16.3907 6.91594 16.2506C5.93338 15.4854 5.13774 14.5067 4.58925 13.3886C4.04075 12.2705 3.75376 11.0423 3.75 9.79689C3.72563 5.32783 7.33688 1.60783 11.8013 1.50001C12.9013 1.47351 13.9955 1.66731 15.0195 2.07003C16.0434 2.47275 16.9765 3.07624 17.7638 3.84497C18.5511 4.61371 19.1766 5.53217 19.6035 6.54628C20.0305 7.5604 20.2503 8.64968 20.25 9.75002ZM18.75 9.75002C18.7503 8.8497 18.5704 7.95842 18.221 7.12866C17.8717 6.29889 17.3598 5.54741 16.7157 4.91843C16.0715 4.28946 15.308 3.7957 14.4701 3.46624C13.6322 3.13678 12.7369 2.97826 11.8369 3.00001C8.18063 3.08626 5.23031 6.13033 5.25 9.78658C5.25336 10.8053 5.4884 11.8098 5.93733 12.7243C6.38627 13.6387 7.03733 14.439 7.84125 15.0647C8.2026 15.3456 8.49489 15.7055 8.69574 16.1168C8.89658 16.528 9.00066 16.9798 9 17.4375V18H11.25V13.8103L8.46938 11.0306C8.32864 10.8899 8.24958 10.699 8.24958 10.5C8.24958 10.301 8.32864 10.1101 8.46938 9.96939C8.61011 9.82866 8.80098 9.7496 9 9.7496C9.19902 9.7496 9.3899 9.82866 9.53063 9.96939L12 12.4397L14.4694 9.96939C14.5391 9.89971 14.6218 9.84443 14.7128 9.80672C14.8039 9.76901 14.9015 9.7496 15 9.7496C15.0985 9.7496 15.1961 9.76901 15.2872 9.80672C15.3782 9.84443 15.4609 9.89971 15.5306 9.96939C15.6003 10.0391 15.6556 10.1218 15.6933 10.2128C15.731 10.3039 15.7504 10.4015 15.7504 10.5C15.7504 10.5986 15.731 10.6961 15.6933 10.7872C15.6556 10.8782 15.6003 10.961 15.5306 11.0306L12.75 13.8103V18H15V17.4375C15.0008 16.9785 15.1066 16.5257 15.3092 16.1138C15.5118 15.7019 15.8059 15.3418 16.1691 15.061C16.9754 14.4308 17.6271 13.6247 18.0744 12.7043C18.5217 11.7839 18.7528 10.7734 18.75 9.75002Z" fill="#423EAC"/>
</svg>
